<svg xmlns="http://www.w3.org/2000/svg" xmlns:xlink="http://www.w3.org/1999/xlink" width="500" zoomAndPan="magnify" viewBox="0 0 375 374.999991" height="500" preserveAspectRatio="xMidYMid meet" version="1.0"><defs><clipPath id="5024335ef0"><path d="M 0 25.078125 L 244 25.078125 L 244 349.828125 L 0 349.828125 Z M 0 25.078125 " clip-rule="nonzero"/></clipPath><clipPath id="5482ef124c"><path d="M 318 25.078125 L 375 25.078125 L 375 58 L 318 58 Z M 318 25.078125 " clip-rule="nonzero"/></clipPath><clipPath id="b7608cd475"><path d="M 150 25.078125 L 338 25.078125 L 338 220 L 150 220 Z M 150 25.078125 " clip-rule="nonzero"/></clipPath></defs><g clip-path="url(#5024335ef0)"><path fill="#afd602" d="M 187.496094 349.882812 L 187.503906 349.882812 L 243.757812 252.480469 L 243.746094 252.472656 L 243.746094 252.460938 L 187.503906 155.046875 L 149.992188 155.046875 L 149.992188 155.035156 L 168.753906 122.5625 L 112.515625 25.148438 L 112.503906 25.148438 L 112.503906 25.136719 L 0 25.136719 L 0.0117188 25.148438 Z M 187.503906 284.933594 L 187.496094 284.933594 L 130.988281 187.027344 L 168.742188 187.523438 L 168.753906 187.523438 L 206.257812 252.460938 Z M 56.261719 57.613281 L 93.765625 57.613281 L 131.253906 122.5625 L 112.503906 155.027344 Z M 56.261719 57.613281 " fill-opacity="1" fill-rule="nonzero"/></g><g clip-path="url(#5482ef124c)"><path fill="#afd602" d="M 356.25 57.601562 L 356.261719 57.589844 L 375 25.128906 L 375 25.117188 L 337.5 25.117188 L 337.488281 25.136719 L 318.75 57.589844 L 356.238281 57.589844 Z M 356.25 57.601562 " fill-opacity="1" fill-rule="nonzero"/></g><g clip-path="url(#b7608cd475)"><path fill="#afd602" d="M 299.996094 25.128906 L 262.496094 25.128906 L 262.496094 25.136719 L 262.484375 25.136719 L 225.007812 90.066406 L 187.503906 25.128906 L 150.015625 25.128906 L 262.507812 219.964844 L 281.257812 187.5 L 281.257812 187.488281 L 281.246094 187.488281 L 243.746094 122.539062 L 318.75 122.539062 L 337.5 90.085938 L 337.488281 90.078125 L 262.507812 90.078125 L 262.507812 90.066406 Z M 299.996094 25.128906 " fill-opacity="1" fill-rule="nonzero"/></g><path stroke-linecap="butt" transform="matrix(0.75, 0, 0, 0.75, 216.757915, 106.796705)" fill="none" stroke-linejoin="miter" d="M -0.000136755 2.000227 L 111.197787 2.000227 " stroke="#afd602" stroke-width="4" stroke-opacity="1" stroke-miterlimit="4"/><path stroke-linecap="round" transform="matrix(0.75, 0, 0, 0.75, 216.757915, 106.796705)" fill="none" stroke-linejoin="round" d="M 103.197787 -3.999774 L 111.197787 2.000227 L 103.197787 8.000227 " stroke="#afd602" stroke-width="4" stroke-opacity="1" stroke-miterlimit="4"/></svg>