<svg xmlns="http://www.w3.org/2000/svg" xmlns:xlink="http://www.w3.org/1999/xlink" width="500" zoomAndPan="magnify" viewBox="0 0 375 374.999991" height="500" preserveAspectRatio="xMidYMid meet" version="1.0"><defs><clipPath id="0b88f5772e"><path d="M 133.835938 145.9375 L 204 145.9375 L 204 238.9375 L 133.835938 238.9375 Z M 133.835938 145.9375 " clip-rule="nonzero"/></clipPath><clipPath id="a9c2520b40"><path d="M 225 145.9375 L 241.085938 145.9375 L 241.085938 156 L 225 156 Z M 225 145.9375 " clip-rule="nonzero"/></clipPath><clipPath id="e7b9dbfdbb"><path d="M 176 145.9375 L 231 145.9375 L 231 202 L 176 202 Z M 176 145.9375 " clip-rule="nonzero"/></clipPath></defs><path fill="#afd602" d="M 221.140625 43.507812 L 242.574219 73.621094 L 205.027344 72.148438 C 202.640625 72.054688 201.125 70.910156 202.960938 69.230469 L 205.214844 67.109375 C 207.890625 64.664062 205.414062 61.792969 201.945312 63.714844 L 195.417969 67.300781 C 187.011719 71.921875 179.328125 72.824219 169.792969 72.824219 C 160.039062 72.824219 153.578125 68.886719 150.734375 64.417969 C 149.3125 62.152344 148.953125 60.011719 149.171875 58.902344 C 149.367188 57.792969 149.488281 57.441406 151.199219 57.042969 C 170.101562 52.789062 180.003906 49.488281 197.328125 38.597656 C 207.019531 32.480469 215.070312 34.996094 221.140625 43.507812 Z M 221.140625 43.507812 " fill-opacity="1" fill-rule="nonzero"/><path fill="#afd602" d="M 238.121094 56.007812 L 257.007812 56.339844 C 260.957031 56.511719 263.457031 57.105469 265.101562 58.007812 C 266.738281 58.890625 267.863281 60.09375 269.164062 62.605469 L 275.578125 74.859375 L 253.054688 73.992188 Z M 238.121094 56.007812 " fill-opacity="1" fill-rule="nonzero"/><path fill="#afd602" d="M 156.132812 85.664062 L 145.824219 95.679688 C 150.878906 100.464844 154.707031 106.976562 155.238281 112.878906 C 155.769531 118.949219 153.898438 125.214844 149.652344 130.21875 C 144.378906 136.4375 136.550781 139.222656 129.007812 138.4375 C 131.015625 145.753906 129.496094 153.921875 124.21875 160.132812 C 118.921875 166.347656 111.09375 169.164062 103.53125 168.367188 C 105.558594 175.710938 104.035156 183.882812 98.738281 190.089844 C 93.550781 196.183594 85.921875 198.988281 78.503906 198.324219 C 80.648438 205.089844 79.757812 212.425781 75.082031 217.933594 C 67.351562 227.039062 53.117188 226.804688 43.390625 218.511719 L 41.289062 216.730469 L 9.261719 246.242188 C 1.9375 252.980469 1.453125 264.304688 8.203125 271.621094 L 65.769531 334.148438 C 72.507812 341.464844 83.828125 341.925781 91.179688 335.1875 L 150.578125 280.554688 L 229.070312 254.855469 C 229.457031 254.695312 290.90625 228.644531 315.492188 216.976562 C 322.355469 213.714844 324.261719 205.964844 322.355469 199.625 C 321.378906 196.460938 319.484375 193.878906 317 192.449219 C 314.515625 191.011719 311.316406 190.507812 306.691406 192.070312 L 242.234375 213.152344 C 236.917969 214.90625 235.203125 209.964844 240.457031 208.023438 L 307.121094 183.257812 C 316.011719 179.960938 315.792969 171.335938 313.84375 165.792969 C 311.9375 160.285156 306.707031 155.394531 301.171875 156.46875 L 238.984375 168.515625 C 233.539062 169.574219 232.019531 163.875 237.421875 162.609375 L 299.417969 148.386719 C 307.121094 146.625 308.277344 139.164062 307.050781 133.5 C 305.835938 127.890625 299.199219 119.144531 290.53125 120.25 C 267.09375 123.285156 220.820312 128.105469 220.820312 128.105469 C 214.921875 128.847656 214.660156 123.039062 220.527344 122.128906 L 289.878906 111.34375 C 296.328125 110.332031 296.398438 101.609375 295.949219 96.132812 C 294.234375 89.089844 289.515625 83.007812 280.777344 82.675781 L 174.414062 80.480469 C 165.402344 80.285156 162.148438 79.808594 156.132812 85.664062 Z M 156.132812 85.664062 " fill-opacity="1" fill-rule="nonzero"/><path fill="#afd602" d="M 125.539062 89.273438 L 141.601562 102.957031 C 148.234375 108.597656 148.976562 118.242188 143.363281 124.84375 C 137.746094 131.445312 128.089844 132.242188 121.492188 126.621094 L 105.421875 112.949219 C 98.824219 107.3125 97.691406 97.359375 103.644531 91.078125 C 109.8125 84.566406 119.210938 83.882812 125.539062 89.273438 Z M 125.539062 89.273438 " fill-opacity="1" fill-rule="nonzero"/><path fill="#afd602" d="M 100.082031 119.234375 L 116.144531 132.917969 C 122.746094 138.527344 123.519531 148.164062 117.910156 154.785156 C 112.292969 161.378906 102.636719 162.207031 96.035156 156.59375 C 90.667969 152.023438 85.316406 147.460938 79.964844 142.910156 C 73.371094 137.273438 72.257812 127.3125 78.214844 121.019531 C 84.378906 114.519531 93.75 113.859375 100.082031 119.234375 Z M 100.082031 119.234375 " fill-opacity="1" fill-rule="nonzero"/><path fill="#afd602" d="M 79.105469 153.035156 L 90.691406 162.878906 C 97.289062 168.496094 98.058594 178.125 92.449219 184.75 C 86.835938 191.351562 77.199219 192.148438 70.597656 186.511719 C 66.722656 183.230469 62.863281 179.933594 59.011719 176.664062 C 52.390625 171.046875 51.28125 161.074219 57.230469 154.789062 C 63.402344 148.285156 72.765625 147.632812 79.105469 153.035156 Z M 79.105469 153.035156 " fill-opacity="1" fill-rule="nonzero"/><path fill="#afd602" d="M 58.148438 186.816406 L 65.203125 192.851562 C 72.066406 198.648438 73.152344 207.445312 68.769531 212.597656 C 64.386719 217.753906 55.570312 218.074219 48.730469 212.238281 L 41.648438 206.21875 C 34.8125 200.402344 33.296875 191.265625 38.082031 186.46875 C 44.011719 180.5625 52.632812 182.117188 58.148438 186.816406 Z M 58.148438 186.816406 " fill-opacity="1" fill-rule="nonzero"/><path fill="#afd602" d="M 324.109375 220.972656 C 322.636719 222.328125 321 223.546875 319.023438 224.496094 C 293.859375 236.4375 232.019531 262.59375 232.019531 262.59375 L 185.511719 277.578125 C 181.511719 278.875 182.285156 283.113281 186.550781 284.417969 L 253.511719 304.742188 L 304.109375 336.847656 C 312.515625 342.195312 323.136719 340.414062 327.933594 332.859375 L 368.757812 268.449219 C 373.546875 260.886719 370.636719 250.527344 362.199219 245.183594 C 349.515625 237.128906 336.824219 229.046875 324.109375 220.972656 Z M 324.109375 220.972656 " fill-opacity="1" fill-rule="nonzero"/><g clip-path="url(#0b88f5772e)"><path fill="#ffffff" d="M 187.496094 238.890625 L 187.5 238.890625 L 203.597656 211.015625 L 203.59375 211.011719 L 203.59375 211.007812 L 187.5 183.132812 L 176.761719 183.132812 L 176.761719 183.128906 L 182.132812 173.835938 L 166.035156 145.957031 L 166.035156 145.953125 L 133.835938 145.953125 L 133.839844 145.957031 Z M 187.5 220.304688 L 187.496094 220.304688 L 171.324219 192.28125 L 182.128906 192.425781 L 182.132812 192.425781 L 192.863281 211.007812 Z M 149.9375 155.246094 L 160.671875 155.246094 L 171.398438 173.835938 L 166.035156 183.125 Z M 149.9375 155.246094 " fill-opacity="1" fill-rule="nonzero"/></g><g clip-path="url(#a9c2520b40)"><path fill="#ffffff" d="M 235.789062 155.242188 L 235.792969 155.238281 L 241.15625 145.949219 L 241.15625 145.945312 L 230.425781 145.945312 L 230.421875 145.953125 L 225.058594 155.238281 L 235.789062 155.238281 Z M 235.789062 155.242188 " fill-opacity="1" fill-rule="nonzero"/></g><g clip-path="url(#e7b9dbfdbb)"><path fill="#ffffff" d="M 219.691406 145.949219 L 208.960938 145.949219 L 208.960938 145.953125 L 208.957031 145.953125 L 198.230469 164.535156 L 187.5 145.949219 L 176.769531 145.949219 L 208.964844 201.710938 L 214.328125 192.417969 L 214.328125 192.414062 L 203.59375 173.828125 L 225.058594 173.828125 L 230.425781 164.539062 L 208.964844 164.539062 L 208.964844 164.535156 Z M 219.691406 145.949219 " fill-opacity="1" fill-rule="nonzero"/></g></svg>